# xmcd CD database file
#
# Track frame offsets:
#	150
#	39522
#	70695
#	93669
#	113795
#	131779
#	167165
#
# Disc length: 2599 seconds
#
# Revision: 1
# Processed by: cddbd v1.5.1PL0 Copyright (c) Steve Scherf et al.
# Submitted via: CDex 1.51
#
DISCID=5d0a2507
DTITLE=Foghat - Road Cases [CD1/2)
DYEAR=2001
DGENRE=Hard Rock
TTITLE0=I Just Wanna Make Love To You
TTITLE1=Drivin' Wheel
TTITLE2=Fool For The City
TTITLE3=Chevrolet
TTITLE4=Soakin' The Bone
TTITLE5=Sweet Home Chicago
TTITLE6=Rock Your House
EXTD=YEAR: 2001
EXTT0=
EXTT1=
EXTT2=
EXTT3=
EXTT4=
EXTT5=
EXTT6=
PLAYORDER=
